# xmcd
#
# Track frame offsets:
#	150
#	20019
#	41065
#	71610
#	90225
#	116800
#	138282
#	155950
#	193545
#	234455
#	276100
#
# Disc length: 4189 seconds
#
# Revision: 0
# Processed by: cddbd v1.4PL0 Copyright (c) Steve Scherf et al.
# Submitted via: EasyCDDAExtractor 4.6.0.1
#
DISCID=99105b0b
DTITLE=Greg Koch - and the Tone Controls - Double the Gristle [CD2]
DYEAR=1997
DGENRE=Blues
TTITLE0=Spanish Castle Magic
TTITLE1=Surf Zep
TTITLE2=Heed the Need
TTITLE3=Steppin' Out
TTITLE4=Cause We've Ended as Lovers
TTITLE5=Freedom
TTITLE6=Shot from the Saddle
TTITLE7=Spank It
TTITLE8=Red House
TTITLE9=Tonus Diabolics
TTITLE10=Stone Free
EXTD=
EXTT0=
EXTT1=
EXTT2=
EXTT3=
EXTT4=
EXTT5=
EXTT6=
EXTT7=
EXTT8=
EXTT9=
EXTT10=
PLAYORDER=
